<?xml version="1.0" encoding="utf-8"?>
<!-- Generator: Adobe Illustrator 16.0.0, SVG Export Plug-In . SVG Version: 6.00 Build 0)  -->
<!DOCTYPE svg PUBLIC "-//W3C//DTD SVG 1.1//EN" "http://www.w3.org/Graphics/SVG/1.1/DTD/svg11.dtd">
<svg version="1.1" id="icons" xmlns="http://www.w3.org/2000/svg" xmlns:xlink="http://www.w3.org/1999/xlink" x="0px" y="0px"
	 width="64px" height="64px" viewBox="0 0 64 64" enable-background="new 0 0 64 64" xml:space="preserve">
<g>
	<g>
		<polygon fill="#FFCE54" points="35,53 35,56 17,56 17,53 18,53 22,53 26,53 30,53 34,53 		"/>
	</g>
	<g>
		<path fill="#A0D468" d="M53,51c1.1,0,2,0.89,2,2v-1c0-1.11,0.89-2,2-2c1.1,0,2,0.89,2,2v1c0-1.11,0.9-2,2-2s2,0.56,2,2v3H51v-3
			C51,51.89,51.9,51,53,51z"/>
	</g>
	<g>
		<path fill="#A0D468" d="M9,53c0-1.11,0.9-2,2-2s2,0.56,2,2v3H1v-3c0-1.11,0.9-2,2-2s2,0.89,2,2v-1c0-1.11,0.9-2,2-2s2,0.89,2,2V53
			z"/>
	</g>
	<g>
		<rect x="39" y="47" fill="#5D9CEC" width="8" height="9"/>
	</g>
	<g>
		<rect x="39" y="38" fill="#5D9CEC" width="8" height="9"/>
	</g>
	<g>
		<rect x="17" y="38" fill="#5D9CEC" width="18" height="10"/>
	</g>
	<g>
		<path fill="#E6E9ED" d="M31,13.01v2c0,0.55-0.439,0.99-1,1h-0.01H28.5h-1.51c-0.551,0-1-0.45-1-1H26v-2h2.49H31z"/>
	</g>
	<g>
		<path fill="#E6E9ED" d="M38,17h-3v-6c1.66,0.01,3,1.35,3,3.01V17z"/>
	</g>
	<g>
		<path fill="#ED5565" d="M29.99,16.01H30c0.561-0.01,1-0.45,1-1v-2h-2.51H26v2h-0.01c0,0.55,0.449,1,1,1h1.51H29.99z M22,8h20v13
			h-7h-6.5H22V8z M35,17h3v-2.99c0-1.66-1.34-3-3-3.01V17z"/>
	</g>
	<g>
		<polygon fill="#E6E9ED" points="51,24 51,28 13,28 13,24 32,24 		"/>
	</g>
	<g>
		<polygon fill="#DA4453" points="53,31 11,31 13,28 51,28 		"/>
	</g>
	<g>
		<polygon fill="#ED5565" points="53,31 53,34 51,34 13,34 11,34 11,31 		"/>
	</g>
	<g>
		<path fill="#E6E9ED" d="M34,53h-4h-4h-4h-4h-1v3h-4v-3V34h38v19v3h-4v-9v-9h-8v9v9h-4v-3H34z M35,48V38H17v10H35z"/>
	</g>
</g>
<g>
	<g>
		<g>
			<g>
				<g>
					<path d="M28.496,22.006c-0.553,0-1-0.447-1-1V16.01c0-0.553,0.447-1,1-1s1,0.447,1,1v4.996
						C29.496,21.559,29.049,22.006,28.496,22.006z"/>
				</g>
				<g>
					<path d="M26.992,17.008c-1.102,0-1.997-0.896-1.997-1.997c0-0.53,0.418-0.913,0.947-0.942c0.522-0.05,0.992,0.414,1.053,0.94
						c0.552,0,0.998,0.447,0.998,0.999C27.993,16.561,27.545,17.008,26.992,17.008z"/>
				</g>
				<g>
					<path d="M29.995,17.01c-0.553,0-1-0.447-1-1s0.447-1,1-1c0-0.553,0.448-1.001,1.001-1.001s1.001,0.446,1.001,0.999
						C31.997,16.111,31.099,17.01,29.995,17.01z"/>
				</g>
				<g>
					<path d="M29.998,17.008h-3.006c-0.553,0-1-0.447-1-1s0.447-1,1-1h3.006c0.553,0,1,0.447,1,1S30.551,17.008,29.998,17.008z"/>
				</g>
				<g>
					<path d="M25.996,16.009c-0.553,0-1-0.447-1-1v-4.002c0-0.553,0.447-1,1-1s1,0.447,1,1v4.002
						C26.996,15.562,26.549,16.009,25.996,16.009z"/>
				</g>
				<g>
					<path d="M30.997,16.009c-0.553,0-1-0.447-1-1v-4.002c0-0.553,0.447-1,1-1s1,0.447,1,1v4.002
						C31.997,15.562,31.55,16.009,30.997,16.009z"/>
				</g>
				<g>
					<path d="M34.997,22.006c-0.553,0-1-0.447-1-1V11.004c0-0.553,0.447-1,1-1s1,0.447,1,1v10.002
						C35.997,21.559,35.55,22.006,34.997,22.006z"/>
				</g>
				<g>
					<path d="M37.997,15.01c-0.553,0-1-0.447-1-1c0-1.106-0.899-2.006-2.006-2.006c-0.553,0-1-0.447-1-1s0.447-1,1-1
						c2.209,0,4.006,1.797,4.006,4.006C38.997,14.563,38.55,15.01,37.997,15.01z"/>
				</g>
				<g>
					<path d="M37.997,18.002c-0.553,0-1-0.447-1-1V14.01c0-0.553,0.447-1,1-1s1,0.447,1,1v2.992
						C38.997,17.555,38.55,18.002,37.997,18.002z"/>
				</g>
				<g>
					<path d="M37.997,18.002h-3c-0.553,0-1-0.447-1-1s0.447-1,1-1h3c0.553,0,1,0.447,1,1S38.55,18.002,37.997,18.002z"/>
				</g>
				<g>
					<path d="M30.997,14.006h-5.001c-0.553,0-1-0.447-1-1s0.447-1,1-1h5.001c0.553,0,1,0.447,1,1S31.55,14.006,30.997,14.006z"/>
				</g>
				<g>
					<path d="M28.495,14.005c-0.553,0-1-0.447-1-1v-1.998c0-0.553,0.447-1,1-1s1,0.447,1,1v1.998
						C29.495,13.558,29.048,14.005,28.495,14.005z"/>
				</g>
			</g>
			<g>
				<path d="M42.001,22.002H21.998c-0.553,0-1-0.447-1-1V8.004c0-0.553,0.447-1,1-1h20.003c0.553,0,1,0.447,1,1v12.998
					C43.001,21.555,42.554,22.002,42.001,22.002z M22.998,20.002h18.003V9.004H22.998V20.002z"/>
			</g>
		</g>
		<g>
			<path d="M31.999,25.003c-0.553,0-1-0.447-1-1v-2.844c0-0.553,0.447-1,1-1s1,0.447,1,1v2.844
				C32.999,24.556,32.552,25.003,31.999,25.003z"/>
		</g>
	</g>
	<g>
		<path d="M63,56.996H1c-0.553,0-1-0.447-1-1s0.447-1,1-1h62c0.553,0,1,0.447,1,1S63.553,56.996,63,56.996z"/>
	</g>
	<g>
		<g>
			<path d="M51,56.996H13c-0.553,0-1-0.447-1-1V33.997c0-0.553,0.447-1,1-1s1,0.447,1,1v20.999h36V33.997c0-0.553,0.447-1,1-1
				s1,0.447,1,1v21.999C52,56.549,51.553,56.996,51,56.996z"/>
		</g>
		<g>
			<path d="M35,48.996H17c-0.553,0-1-0.447-1-1v-10c0-0.553,0.447-1,1-1h18c0.553,0,1,0.447,1,1v10
				C36,48.549,35.553,48.996,35,48.996z M18,46.996h16v-8H18V46.996z"/>
		</g>
		<g>
			<path d="M47,56.996h-8c-0.553,0-1-0.447-1-1v-18c0-0.553,0.447-1,1-1h8c0.553,0,1,0.447,1,1v18
				C48,56.549,47.553,56.996,47,56.996z M40,54.996h6v-16h-6V54.996z"/>
		</g>
	</g>
	<g>
		<path d="M13,56.996c-0.553,0-1-0.447-1-1v-3c0-0.601-0.17-1-0.999-1c-0.553,0-1.002,0.448-1.002,1c0,0.553-0.447,1-1,1
			s-1-0.447-1-1v-1.001c0-0.551-0.448-0.999-0.999-0.999s-0.999,0.448-0.999,0.999v1.001c0,0.553-0.447,1-1,1s-1-0.447-1-1
			c0-0.552-0.449-1-1.002-1c-0.551,0-0.999,0.448-0.999,1v3c0,0.553-0.447,1-1,1s-1-0.447-1-1v-3c0-1.654,1.346-3,2.999-3
			c0.535,0,1.038,0.141,1.474,0.387C5.006,49.55,5.939,48.996,7,48.996s1.994,0.554,2.527,1.387
			c0.436-0.246,0.938-0.387,1.474-0.387c1.822,0,2.999,1.178,2.999,3v3C14,56.549,13.553,56.996,13,56.996z"/>
	</g>
	<g>
		<path d="M63,56.996c-0.553,0-1-0.447-1-1v-3c0-0.601-0.17-1-0.999-1c-0.553,0-1.002,0.448-1.002,1c0,0.553-0.447,1-1,1
			s-1-0.447-1-1v-1.001c0-0.551-0.448-0.999-0.999-0.999s-0.999,0.448-0.999,0.999v1.001c0,0.553-0.447,1-1,1s-1-0.447-1-1
			c0-0.552-0.449-1-1.002-1c-0.551,0-0.999,0.448-0.999,1v3c0,0.553-0.447,1-1,1s-1-0.447-1-1v-3c0-1.654,1.346-3,2.999-3
			c0.535,0,1.038,0.141,1.474,0.387c0.533-0.833,1.467-1.387,2.527-1.387s1.994,0.554,2.527,1.387
			c0.436-0.246,0.938-0.387,1.474-0.387c1.822,0,2.999,1.178,2.999,3v3C64,56.549,63.553,56.996,63,56.996z"/>
	</g>
	<g>
		<path d="M47,47.996h-8c-0.553,0-1-0.447-1-1s0.447-1,1-1h8c0.553,0,1,0.447,1,1S47.553,47.996,47,47.996z"/>
	</g>
	<g>
		<path d="M17,56.996c-0.553,0-1-0.447-1-1v-3c0-0.553,0.447-1,1-1s1,0.447,1,1v3C18,56.549,17.553,56.996,17,56.996z"/>
	</g>
	<g>
		<path d="M35,53.996H17c-0.553,0-1-0.447-1-1s0.447-1,1-1h18c0.553,0,1,0.447,1,1S35.553,53.996,35,53.996z"/>
	</g>
	<g>
		<path d="M35,56.996c-0.553,0-1-0.447-1-1v-3c0-0.553,0.447-1,1-1s1,0.447,1,1v3C36,56.549,35.553,56.996,35,56.996z"/>
	</g>
	<g>
		<path d="M34,53.996c-0.553,0-1-0.447-1-1v-1c0-0.553,0.447-1,1-1s1,0.447,1,1v1C35,53.549,34.553,53.996,34,53.996z"/>
	</g>
	<g>
		<path d="M30,53.996c-0.553,0-1-0.447-1-1v-1c0-0.553,0.447-1,1-1s1,0.447,1,1v1C31,53.549,30.553,53.996,30,53.996z"/>
	</g>
	<g>
		<path d="M26,53.996c-0.553,0-1-0.447-1-1v-1c0-0.553,0.447-1,1-1s1,0.447,1,1v1C27,53.549,26.553,53.996,26,53.996z"/>
	</g>
	<g>
		<path d="M22,53.996c-0.553,0-1-0.447-1-1v-1c0-0.553,0.447-1,1-1s1,0.447,1,1v1C23,53.549,22.553,53.996,22,53.996z"/>
	</g>
	<g>
		<path d="M18,53.996c-0.553,0-1-0.447-1-1v-1c0-0.553,0.447-1,1-1s1,0.447,1,1v1C19,53.549,18.553,53.996,18,53.996z"/>
	</g>
	<g>
		<path d="M11,34.997c-0.553,0-1-0.447-1-1v-3c0-0.553,0.447-1,1-1s1,0.447,1,1v3C12,34.55,11.553,34.997,11,34.997z"/>
	</g>
	<g>
		<path d="M53,34.997c-0.553,0-1-0.447-1-1v-3c0-0.553,0.447-1,1-1s1,0.447,1,1v3C54,34.55,53.553,34.997,53,34.997z"/>
	</g>
	<g>
		<path d="M10.999,31.997c-0.19,0-0.383-0.055-0.554-0.168c-0.459-0.307-0.584-0.927-0.277-1.387l2-3.001
			c0.305-0.46,0.926-0.584,1.387-0.277c0.459,0.307,0.584,0.927,0.277,1.387l-2,3.001C11.64,31.841,11.322,31.997,10.999,31.997z"/>
	</g>
	<g>
		<path d="M53.001,31.997c-0.323,0-0.641-0.156-0.833-0.445l-2-3.001c-0.307-0.46-0.182-1.08,0.277-1.387
			c0.46-0.307,1.08-0.183,1.387,0.277l2,3.001c0.307,0.46,0.182,1.08-0.277,1.387C53.384,31.942,53.191,31.997,53.001,31.997z"/>
	</g>
	<g>
		<path d="M51,28.996H13c-0.553,0-1-0.447-1-1s0.447-1,1-1h38c0.553,0,1,0.447,1,1S51.553,28.996,51,28.996z"/>
	</g>
	<g>
		<path d="M13,28.996c-0.553,0-1-0.447-1-1v-4c0-0.553,0.447-1,1-1s1,0.447,1,1v4C14,28.549,13.553,28.996,13,28.996z"/>
	</g>
	<g>
		<path d="M51,24.996H13c-0.553,0-1-0.447-1-1s0.447-1,1-1h38c0.553,0,1,0.447,1,1S51.553,24.996,51,24.996z"/>
	</g>
	<g>
		<path d="M51,28.996c-0.553,0-1-0.447-1-1v-4c0-0.553,0.447-1,1-1s1,0.447,1,1v4C52,28.549,51.553,28.996,51,28.996z"/>
	</g>
	<g>
		<path d="M53,34.997H11c-0.553,0-1-0.447-1-1s0.447-1,1-1h42c0.553,0,1,0.447,1,1S53.553,34.997,53,34.997z"/>
	</g>
	<g>
		<path d="M53,31.997H11c-0.553,0-1-0.447-1-1s0.447-1,1-1h42c0.553,0,1,0.447,1,1S53.553,31.997,53,31.997z"/>
	</g>
</g>
</svg>
