<?xml version="1.0" encoding="iso-8859-1"?>
<!-- Generator: Adobe Illustrator 19.0.0, SVG Export Plug-In . SVG Version: 6.00 Build 0)  -->
<svg version="1.1" id="Layer_1" xmlns="http://www.w3.org/2000/svg" xmlns:xlink="http://www.w3.org/1999/xlink" x="0px" y="0px"
	 viewBox="0 0 512 512" style="enable-background:new 0 0 512 512;" xml:space="preserve">
<g transform="translate(1 1)">
	<g>
		<g>
			<path d="M118.467,412.867c-9.387,0-17.067,7.68-17.067,17.067S109.08,447,118.467,447s17.067-7.68,17.067-17.067
				S127.853,412.867,118.467,412.867z"/>
			<path d="M118.467,378.733c-28.16,0-51.2,23.04-51.2,51.2s23.04,51.2,51.2,51.2c28.16,0,51.2-23.04,51.2-51.2
				S146.627,378.733,118.467,378.733z M118.467,464.067c-18.773,0-34.133-15.36-34.133-34.133c0-18.773,15.36-34.133,34.133-34.133
				s34.133,15.36,34.133,34.133C152.6,448.707,137.24,464.067,118.467,464.067z"/>
			<path d="M451.267,412.867c-9.387,0-17.067,7.68-17.067,17.067S441.88,447,451.267,447c9.387,0,17.067-7.68,17.067-17.067
				S460.653,412.867,451.267,412.867z"/>
			<path d="M451.267,378.733c-28.16,0-51.2,23.04-51.2,51.2s23.04,51.2,51.2,51.2c28.16,0,51.2-23.04,51.2-51.2
				S479.427,378.733,451.267,378.733z M451.267,464.067c-18.773,0-34.133-15.36-34.133-34.133c0-18.773,15.36-34.133,34.133-34.133
				c18.773,0,34.133,15.36,34.133,34.133C485.4,448.707,470.04,464.067,451.267,464.067z"/>
			<path d="M496.493,342.04c-12.8-14.507-32.427-23.04-53.76-23.04h-1.707c-7.68-25.6-25.6-46.08-49.493-57.173v-48.64l5.12,2.56
				c0.853,0.853,1.707,0.853,3.413,0.853h17.067c5.12,0,8.533-3.413,8.533-8.533v-51.2c0-5.12-3.413-8.533-8.533-8.533h-17.067
				c-1.707,0-2.56,0-3.413,0.853l-17.067,8.533c-3.413,1.707-5.12,4.267-5.12,7.68h-76.8c-5.12,0-8.533,3.413-8.533,8.533h-42.667
				V152.6c0-14.118-7.478-26.362-18.718-33.033c11.412-9.41,18.718-23.643,18.718-39.5c0-28.16-23.04-51.2-51.2-51.2
				c-28.16,0-51.2,23.04-51.2,51.2c0,17.69,9.095,33.355,22.838,42.562c-8.739,7.016-14.304,17.796-14.304,29.972v128
				c0,7.918,2.355,15.245,6.403,21.333h-23.469V191c0-5.12-3.413-8.533-8.533-8.533H84.333H50.2H7.533C2.413,182.467-1,185.88-1,191
				v119.467c0,5.12,3.413,8.533,8.533,8.533h4.615c-2.927,5.029-4.615,10.859-4.615,17.067v10.24c0,7.68,3.413,13.653,9.387,18.773
				c7.68,4.267,9.387,13.653,5.12,21.333l-10.24,17.92C8.387,408.6,6.68,415.427,8.387,421.4c0.853,5.973,5.12,11.947,11.093,14.507
				c2.56,1.707,5.973,2.56,9.387,2.56H50.2c5.12,0,8.533-3.413,8.533-8.533c0-33.28,26.453-59.733,59.733-59.733
				c33.28,0,59.733,26.453,59.733,59.733c0,5.12,3.413,8.533,8.533,8.533H383c5.12,0,8.533-3.413,8.533-8.533
				c0-33.28,26.453-59.733,59.733-59.733c28.16,0,35.84,5.12,45.227,14.507c2.56,2.56,5.973,3.413,9.387,1.707
				c3.413-0.853,5.12-4.267,5.12-7.68C511,365.08,505.88,353.133,496.493,342.04z M391.533,170.52l10.24-5.12h6.827v34.133h-6.827
				l-10.24-5.12v-20.48V170.52z M329.894,387.267L293.4,272.92c-3.413-13.653-16.213-22.187-29.867-22.187H229.4v-25.6h59.733
				c0,5.12,3.413,8.533,8.533,8.533h42.667v153.6H329.894z M195.267,45.933c18.773,0,34.133,15.36,34.133,34.133
				S214.04,114.2,195.267,114.2c-18.773,0-34.133-15.36-34.133-34.133S176.493,45.933,195.267,45.933z M169.667,280.6v-128
				c0-11.947,9.387-21.333,21.333-21.333h17.067c11.947,0,21.333,9.387,21.333,21.333v29.867c0,5.12,3.413,8.533,8.533,8.533h59.733
				c0.319,0,0.637,0.013,0.954,0.042c0.017,0.001,0.032,0.005,0.049,0.006c2.212,0.207,4.341,1.141,5.824,3.365
				c1.398,1.398,1.647,3.371,1.693,5.446c-0.025,0.842-0.135,1.639-0.339,2.376c-1.342,3.051-5.183,5.832-9.034,5.832h-75.947
				c-5.12,0-8.533-3.413-8.533-8.533v-25.6c0-5.12-3.413-8.533-8.533-8.533c-5.12,0-8.533,3.413-8.533,8.533v25.6
				c0,11.491,6.963,20.833,17.067,24.224v35.509c0,5.12,3.413,8.533,8.533,8.533h42.667c6.827,0,11.947,4.267,13.653,10.24
				l34.133,109.227h-24.747l-23.04-79.36c-1.707-3.413-5.12-5.973-8.533-5.973h-51.2H191
				C179.053,301.933,169.667,292.547,169.667,280.6z M231.96,371.907c4.267-11.947,5.973-23.893,5.973-35.84
				c0-5.875-1.618-11.749-4.854-17.067h15.947l19.819,68.267h-43.713L231.96,371.907z M75.8,199.533V216.6H58.733v-17.067H75.8z
				 M16.067,199.533h25.6v25.6c0,5.12,3.413,8.533,8.533,8.533h34.133c5.12,0,8.533-3.413,8.533-8.533v-25.6h25.6v102.4h-76.8h-25.6
				V199.533z M450.413,353.133c-39.253,0-71.68,29.867-75.947,68.267H194.413c-4.267-38.4-37.547-68.267-76.8-68.267
				S45.933,383,41.667,421.4h-12.8c-0.853,0-0.853,0-1.707,0c-1.707-0.853-2.56-2.56-2.56-3.413c0-0.853,0-2.56,0.853-4.267
				l0.853-0.853L37.4,394.093c9.387-15.36,4.267-34.987-10.24-44.373c-0.853-0.853-2.56-1.707-2.56-3.413v-10.24
				C24.6,326.68,32.28,319,41.667,319H127h64h12.8c4.267,0,8.533,1.707,11.947,5.12s5.12,7.68,5.12,11.947
				c0,10.24-0.853,20.48-4.267,29.867l-11.947,26.453c-0.853,2.56,0,5.12,0.853,7.68c0.853,2.56,4.267,4.267,6.827,4.267H280.6
				h42.667h25.6c5.12,0,8.533-3.413,8.533-8.533V225.133c0-5.12-3.413-8.533-8.533-8.533h-31.871
				c3.324-3.547,5.579-7.955,6.271-12.8c0.457-3.659,0.171-7.562-0.974-11.318c-0.05-0.175-0.103-0.348-0.157-0.522
				c-0.006-0.019-0.012-0.039-0.019-0.058c-0.842-2.683-2.124-5.128-3.774-7.262c-0.334-0.448-0.68-0.889-1.05-1.32
				c-0.251-0.292-0.509-0.573-0.767-0.853h57.941v17.067V267.8c0,3.413,1.707,6.827,3.413,7.68l2.56,0.853
				c22.187,9.387,38.4,29.013,43.52,52.907c0.853,4.267,4.267,6.827,8.533,6.827h8.533c16.213,0,31.573,5.973,40.96,17.067
				c1.707,1.707,3.413,3.413,4.267,5.12C477.72,354.84,466.627,353.133,450.413,353.133z"/>
		</g>
	</g>
</g>
<g>
</g>
<g>
</g>
<g>
</g>
<g>
</g>
<g>
</g>
<g>
</g>
<g>
</g>
<g>
</g>
<g>
</g>
<g>
</g>
<g>
</g>
<g>
</g>
<g>
</g>
<g>
</g>
<g>
</g>
</svg>
