<?xml version="1.0" encoding="utf-8"?>
<!-- Generator: Adobe Illustrator 16.0.0, SVG Export Plug-In . SVG Version: 6.00 Build 0)  -->
<!DOCTYPE svg PUBLIC "-//W3C//DTD SVG 1.1//EN" "http://www.w3.org/Graphics/SVG/1.1/DTD/svg11.dtd">
<svg version="1.1" id="icons" xmlns="http://www.w3.org/2000/svg" xmlns:xlink="http://www.w3.org/1999/xlink" x="0px" y="0px"
	 width="64px" height="64px" viewBox="0 0 64 64" enable-background="new 0 0 64 64" xml:space="preserve">
<g>
	<g>
		<path fill="#ED5565" d="M36,46v16H2c-0.55,0-1-0.449-1-1v-7c0-4.42,3.58-8,8-8h7l4,2l3-1l3,1l4-2H36z"/>
	</g>
	<g>
		<path fill="#FFD2A6" d="M44.5,50h1.49H46c0.561-0.01,1-0.449,1-1v-2h-2.51H42v2h-0.01c0,0.551,0.45,1,1,1H44.5z M50,52h3v-4
			c0-1.659-1.34-2.989-3-3V52z M59,40v22H36V46v-6h7h4h7h4H59z"/>
	</g>
	<g>
		<path fill="#F5F7FA" d="M47,47v2c0,0.551-0.439,0.99-1,1h-0.01H44.5h-1.51c-0.55,0-1-0.449-1-1H42v-2h2.49H47z"/>
	</g>
	<g>
		<rect x="59" y="40" fill="#F7C292" width="4" height="22"/>
	</g>
	<g>
		<path fill="#F5F7FA" d="M53,48v4h-3v-7C51.66,45.011,53,46.341,53,48z"/>
	</g>
	<g>
		<path fill="#656D78" d="M40,22h-2H8H6c0,0,0.551-0.6,2-1.34C10.28,19.5,14.82,18,23,18s12.721,1.5,15,2.66C39.45,21.4,40,22,40,22
			z"/>
	</g>
	<g>
		<path fill="#EAC6BB" d="M38,22v5c0,5.75-3.24,10.75-8,13.271C27.91,41.37,25.53,42,23,42c-2.529,0-4.91-0.63-7-1.729
			C11.24,37.75,8,32.75,8,27v-5H38z"/>
	</g>
	<g>
		<path fill="#D3B1A9" d="M34.998,22v5c0,5.75-3.239,10.75-8,13.271c-1.67,0.879-3.528,1.451-5.498,1.648
			C21.994,41.968,22.492,42,23,42c2.53,0,4.91-0.63,7-1.729C34.76,37.75,38,32.75,38,27v-5H34.998z"/>
	</g>
	<g>
		<path fill="#ED5565" d="M38,18v2.66C35.721,19.5,31.18,18,23,18s-12.72,1.5-15,2.66V18C8,9.711,14.71,3,23,3
			C31.28,3,38,9.711,38,18z M26,11c0-1.66-1.35-3-3-3c-1.66,0-3,1.34-3,3c0,1.65,1.34,3,3,3C24.65,14,26,12.65,26,11z"/>
	</g>
	<g>
		<g>
			<path fill="#DA4453" d="M23,3c-0.507,0-1.008,0.027-1.502,0.076c7.577,0.752,13.5,7.142,13.5,14.924v1.482
				c1.271,0.387,2.26,0.8,3.002,1.178V18C38,9.711,31.28,3,23,3z"/>
		</g>
	</g>
	<g>
		<path fill="#FFCE54" d="M30,40.271V46l-4,2l-3-1l-3,1l-4-2v-5.729C18.09,41.37,20.471,42,23,42C25.53,42,27.91,41.37,30,40.271z"
			/>
	</g>
	<g>
		<path fill="#FFCE54" d="M23,8c1.65,0,3,1.34,3,3c0,1.65-1.35,3-3,3c-1.66,0-3-1.35-3-3C20,9.34,21.34,8,23,8z"/>
	</g>
</g>
<g>
	<g>
		<path d="M1,55.003c-0.553,0-1-0.447-1-1c0-4.964,4.038-9.002,9.002-9.002c0.553,0,1,0.447,1,1s-0.447,1-1,1
			C5.141,47.001,2,50.142,2,54.003C2,54.556,1.553,55.003,1,55.003z"/>
	</g>
	<g>
		<path d="M16,47.002L16,47.002l-6.998-0.001c-0.553,0-1-0.448-1-1c0-0.553,0.448-1,1-1l0,0L16,45.002c0.553,0,1,0.448,1,1
			C17,46.555,16.552,47.002,16,47.002z"/>
	</g>
	<g>
		<path d="M1.001,62c-0.552,0-1-0.447-1-1L0,54.003c0-0.552,0.447-1,1-1c0.552,0,1,0.447,1,1L2.001,61
			C2.001,61.552,1.554,62,1.001,62z"/>
	</g>
	<g>
		<path d="M2.001,63c-1.103,0-2-0.897-2-2c0-0.553,0.447-1,1-1s1,0.447,1,1v0.002c0.553,0,1,0.446,1,0.999
			C3.001,62.553,2.554,63,2.001,63z"/>
	</g>
	<g>
		<path d="M35.998,63H2.001c-0.553,0-1-0.447-1-1s0.447-1,1-1h33.997c0.553,0,1,0.447,1,1S36.551,63,35.998,63z"/>
	</g>
	<g>
		<path d="M16,47.002c-0.553,0-1-0.447-1-1v-5.731c0-0.553,0.447-1,1-1s1,0.447,1,1v5.731C17,46.555,16.553,47.002,16,47.002z"/>
	</g>
	<g>
		<path d="M30,47.001c-0.553,0-1-0.447-1-1v-5.73c0-0.553,0.447-1,1-1s1,0.447,1,1v5.73C31,46.554,30.553,47.001,30,47.001z"/>
	</g>
	<g>
		<path d="M23,43.001c-8.822,0-16-7.178-16-16c0-0.552,0.447-1,1-1s1,0.448,1,1c0,7.72,6.28,14,14,14s14-6.28,14-14
			c0-0.552,0.447-1,1-1s1,0.448,1,1C39,35.823,31.822,43.001,23,43.001z"/>
	</g>
	<g>
		<path d="M38,19c-0.553,0-1-0.448-1-1c0-7.72-6.28-14-14-14S9,10.28,9,18c0,0.552-0.447,1-1,1s-1-0.448-1-1C7,9.178,14.178,2,23,2
			s16,7.178,16,16C39,18.552,38.553,19,38,19z"/>
	</g>
	<g>
		<path d="M8,28.001c-0.553,0-1-0.448-1-1V22c0-0.552,0.447-1,1-1s1,0.448,1,1v5.001C9,27.553,8.553,28.001,8,28.001z"/>
	</g>
	<g>
		<path d="M38,28.001c-0.553,0-1-0.448-1-1V22c0-0.552,0.447-1,1-1s1,0.448,1,1v5.001C39,27.553,38.553,28.001,38,28.001z"/>
	</g>
	<g>
		<path d="M40,23H6c-0.553,0-1-0.448-1-1s0.447-1,1-1h34c0.553,0,1,0.448,1,1S40.553,23,40,23z"/>
	</g>
	<g>
		<path d="M40,23c-0.272,0-0.544-0.111-0.741-0.329C39.232,22.645,35.604,19,23,19S6.768,22.645,6.732,22.681
			c-0.379,0.396-1.009,0.419-1.409,0.046c-0.4-0.373-0.432-0.993-0.064-1.398C5.419,21.152,9.339,17,23,17
			s17.581,4.152,17.741,4.329c0.371,0.409,0.34,1.042-0.069,1.413C40.48,22.915,40.24,23,40,23z"/>
	</g>
	<g>
		<path d="M38,21.659c-0.553,0-1-0.448-1-1V18c0-0.552,0.447-1,1-1s1,0.448,1,1v2.659C39,21.211,38.553,21.659,38,21.659z"/>
	</g>
	<g>
		<path d="M8,21.659c-0.553,0-1-0.448-1-1V18c0-0.552,0.447-1,1-1s1,0.448,1,1v2.659C9,21.211,8.553,21.659,8,21.659z"/>
	</g>
	<g>
		<path d="M23,15c-2.206,0-4-1.794-4-4s1.794-4,4-4s4,1.794,4,4S25.206,15,23,15z M23,9c-1.103,0-2,0.897-2,2s0.897,2,2,2
			s2-0.897,2-2S24.103,9,23,9z"/>
	</g>
	<g>
		<path d="M23,4c-0.553,0-1-0.448-1-1V2c0-0.552,0.447-1,1-1s1,0.448,1,1v1C24,3.552,23.553,4,23,4z"/>
	</g>
	<g>
		<path d="M19.999,48.999c-0.15,0-0.303-0.034-0.445-0.105l-4-1.997c-0.494-0.246-0.695-0.847-0.448-1.341
			c0.246-0.495,0.85-0.693,1.341-0.448l4,1.997c0.494,0.246,0.695,0.847,0.448,1.341C20.72,48.797,20.366,48.999,19.999,48.999z"/>
	</g>
	<g>
		<path d="M20,48.999c-0.419,0-0.81-0.266-0.949-0.685c-0.174-0.524,0.109-1.09,0.634-1.265l3-0.997
			c0.523-0.172,1.09,0.11,1.265,0.634c0.174,0.524-0.109,1.09-0.634,1.265l-3,0.997C20.211,48.982,20.104,48.999,20,48.999z"/>
	</g>
	<g>
		<path d="M26.001,48.999c-0.367,0-0.721-0.202-0.896-0.554c-0.247-0.494-0.046-1.095,0.448-1.341l4-1.997
			c0.494-0.245,1.095-0.046,1.341,0.448c0.247,0.494,0.046,1.095-0.448,1.341l-4,1.997C26.304,48.965,26.15,48.999,26.001,48.999z"
			/>
	</g>
	<g>
		<path d="M26,48.999c-0.104,0-0.211-0.017-0.315-0.051l-3-0.997c-0.524-0.175-0.808-0.74-0.634-1.265
			c0.175-0.523,0.741-0.806,1.265-0.634l3,0.997c0.524,0.175,0.808,0.74,0.634,1.265C26.81,48.733,26.419,48.999,26,48.999z"/>
	</g>
	<g>
		<path d="M23.03,52.999c-0.553,0-1.005-0.447-1.005-1s0.442-1,0.994-1h0.011c0.552,0,1,0.447,1,1S23.582,52.999,23.03,52.999z"/>
	</g>
	<g>
		<g>
			<path d="M58.998,63h-23c-0.553,0-1-0.447-1-1V40c0-0.553,0.447-1,1-1h23c0.553,0,1,0.447,1,1v22
				C59.998,62.553,59.551,63,58.998,63z M36.998,61h21V41h-21V61z"/>
		</g>
		<g>
			<g>
				<path d="M44.498,59.005c-0.553,0-1-0.447-1-1v-8c0-0.553,0.447-1,1-1s1,0.447,1,1v8C45.498,58.558,45.051,59.005,44.498,59.005z
					"/>
			</g>
			<g>
				<path d="M42.994,51.003c-1.102,0-1.997-0.896-1.997-1.997c0-0.53,0.418-0.913,0.947-0.942c0.515-0.03,0.992,0.414,1.053,0.94
					c0.552,0,0.998,0.447,0.998,0.999C43.995,50.556,43.547,51.003,42.994,51.003z"/>
			</g>
			<g>
				<path d="M45.997,51.005c-0.553,0-1-0.447-1-1s0.447-1,1-1c0-0.553,0.448-1.001,1.001-1.001s1.001,0.446,1.001,0.999
					C47.999,50.106,47.101,51.005,45.997,51.005z"/>
			</g>
			<g>
				<path d="M46,51.003h-3.006c-0.553,0-1-0.447-1-1s0.447-1,1-1H46c0.553,0,1,0.447,1,1S46.553,51.003,46,51.003z"/>
			</g>
			<g>
				<path d="M41.998,50.004c-0.553,0-1-0.447-1-1v-4.002c0-0.553,0.447-1,1-1s1,0.447,1,1v4.002
					C42.998,49.557,42.551,50.004,41.998,50.004z"/>
			</g>
			<g>
				<path d="M46.999,50.004c-0.553,0-1-0.447-1-1v-4.002c0-0.553,0.447-1,1-1s1,0.447,1,1v4.002
					C47.999,49.557,47.552,50.004,46.999,50.004z"/>
			</g>
			<g>
				<path d="M49.998,59.005c-0.553,0-1-0.447-1-1V44.999c0-0.553,0.447-1,1-1s1,0.447,1,1v13.006
					C50.998,58.558,50.551,59.005,49.998,59.005z"/>
			</g>
			<g>
				<path d="M52.998,49.005c-0.553,0-1-0.447-1-1c0-1.106-0.899-2.006-2.006-2.006c-0.553,0-1-0.447-1-1s0.447-1,1-1
					c2.209,0,4.006,1.797,4.006,4.006C53.998,48.558,53.551,49.005,52.998,49.005z"/>
			</g>
			<g>
				<path d="M52.998,52.999c-0.553,0-1-0.447-1-1v-3.994c0-0.553,0.447-1,1-1s1,0.447,1,1v3.994
					C53.998,52.552,53.551,52.999,52.998,52.999z"/>
			</g>
			<g>
				<path d="M52.998,52.999h-3c-0.553,0-1-0.447-1-1s0.447-1,1-1h3c0.553,0,1,0.447,1,1S53.551,52.999,52.998,52.999z"/>
			</g>
			<g>
				<path d="M46.999,48.001h-5.001c-0.553,0-1-0.447-1-1s0.447-1,1-1h5.001c0.553,0,1,0.447,1,1S47.552,48.001,46.999,48.001z"/>
			</g>
			<g>
				<path d="M44.497,48c-0.553,0-1-0.447-1-1v-1.998c0-0.553,0.447-1,1-1s1,0.447,1,1V47C45.497,47.553,45.05,48,44.497,48z"/>
			</g>
		</g>
		<g>
			<path d="M63,63h-4.002c-0.553,0-1-0.447-1-1s0.447-1,1-1H62V41h-3.002c-0.553,0-1-0.447-1-1s0.447-1,1-1H63c0.553,0,1,0.447,1,1
				v22C64,62.553,63.553,63,63,63z"/>
		</g>
		<g>
			<path d="M54,36.502c-0.553,0-1-0.447-1-1C53,33.02,50.981,31,48.5,31S44,33.02,44,35.502c0,0.553-0.447,1-1,1s-1-0.447-1-1
				C42,31.917,44.916,29,48.5,29s6.5,2.917,6.5,6.501C55,36.055,54.553,36.502,54,36.502z"/>
		</g>
		<g>
			<path d="M43,41c-0.553,0-1-0.447-1-1v-4.498c0-0.553,0.447-1,1-1s1,0.447,1,1V40C44,40.553,43.553,41,43,41z"/>
		</g>
		<g>
			<path d="M54,41c-0.553,0-1-0.447-1-1v-4.498c0-0.553,0.447-1,1-1s1,0.447,1,1V40C55,40.553,54.553,41,54,41z"/>
		</g>
		<g>
			<path d="M58.004,36.502c-0.553,0-1-0.447-1-1c0-2.482-2.019-4.501-4.5-4.501s-4.5,2.019-4.5,4.501c0,0.553-0.447,1-1,1
				s-1-0.447-1-1c0-3.585,2.916-6.501,6.5-6.501s6.5,2.917,6.5,6.501C59.004,36.055,58.557,36.502,58.004,36.502z"/>
		</g>
		<g>
			<path d="M47.004,41c-0.553,0-1-0.447-1-1v-4.498c0-0.553,0.447-1,1-1s1,0.447,1,1V40C48.004,40.553,47.557,41,47.004,41z"/>
		</g>
		<g>
			<path d="M58.004,41c-0.553,0-1-0.447-1-1v-4.498c0-0.553,0.447-1,1-1s1,0.447,1,1V40C59.004,40.553,58.557,41,58.004,41z"/>
		</g>
	</g>
	<g>
		<path d="M35.998,47.001H30c-0.553,0-1-0.447-1-1s0.447-1,1-1h5.998c0.553,0,1,0.447,1,1S36.551,47.001,35.998,47.001z"/>
	</g>
</g>
</svg>
