<?xml version="1.0" encoding="utf-8"?>
<!-- Generator: Adobe Illustrator 16.0.0, SVG Export Plug-In . SVG Version: 6.00 Build 0)  -->
<!DOCTYPE svg PUBLIC "-//W3C//DTD SVG 1.1//EN" "http://www.w3.org/Graphics/SVG/1.1/DTD/svg11.dtd">
<svg version="1.1" id="icons" xmlns="http://www.w3.org/2000/svg" xmlns:xlink="http://www.w3.org/1999/xlink" x="0px" y="0px"
	 width="64px" height="64px" viewBox="0 0 64 64" enable-background="new 0 0 64 64" xml:space="preserve">
<g>
	<g>
		<path fill="#CCD1D9" d="M28,16H1.02H1v-2c0-1.11,0.89-2,2-2h25V16z"/>
	</g>
	<g>
		<polygon fill="#ED5565" points="59,13.47 57.5,14.93 57.85,17 56,16.02 54.15,17 54.5,14.93 53,13.47 55.07,13.17 56,11.29 
			56.93,13.17 		"/>
	</g>
	<g>
		<polygon fill="#ED5565" points="49,13.47 47.5,14.93 47.85,17 46,16.02 44.15,17 44.5,14.93 43,13.47 45.07,13.17 46,11.29 
			46.93,13.17 		"/>
	</g>
	<g>
		<polygon fill="#ED5565" points="39,13.47 37.5,14.93 37.85,17 36,16.02 34.15,17 34.5,14.93 33,13.47 35.07,13.17 36,11.29 
			36.93,13.17 		"/>
	</g>
	<g>
		<path fill="#FFCE54" d="M63,4v20H49.02H42.99H39l-4,2v-2h-7v-2v-6v-4V4H63z M57.5,14.93l1.5-1.46l-2.07-0.3L56,11.29l-0.93,1.88
			L53,13.47l1.5,1.46L54.15,17L56,16.02L57.85,17L57.5,14.93z M47.5,14.93l1.5-1.46l-2.07-0.3L46,11.29l-0.93,1.88L43,13.47
			l1.5,1.46L44.15,17L46,16.02L47.85,17L47.5,14.93z M37.5,14.93l1.5-1.46l-2.07-0.3L36,11.29l-0.93,1.88L33,13.47l1.5,1.46
			L34.15,17L36,16.02L37.85,17L37.5,14.93z"/>
	</g>
	<g>
		<polygon fill="#E6E9ED" points="49.02,24 49.02,60 1.02,60 1.02,16 28,16 28,22 6.99,22 6.99,23 6.99,42 42.99,42 42.99,24.38 
			42.99,24 		"/>
	</g>
	<g>
		<path fill="#ED5565" d="M33,38v-3c0-4.42-3.58-8-8-8s-8,3.58-8,8v3H33z M42.99,24.38V42h-36V23v-1H28v2h7v2l4-2h3.99V24.38z"/>
	</g>
	<g>
		<path fill="#CCD1D9" d="M33,35v3H17v-3c0-4.42,3.58-8,8-8S33,30.58,33,35z"/>
	</g>
	<g>
		<path fill="#AAB2BD" d="M25,27c-0.514,0-1.015,0.053-1.502,0.146c3.701,0.703,6.499,3.948,6.499,7.854v3H33v-3
			C33,30.58,29.42,27,25,27z"/>
	</g>
</g>
<g>
	<g>
		<g>
			<path d="M4.03,15.001c-0.553,0-1.005-0.447-1.005-1s0.442-1,0.994-1H4.03c0.552,0,1,0.447,1,1S4.582,15.001,4.03,15.001z"/>
		</g>
		<g>
			<path d="M7.03,15.001c-0.553,0-1.005-0.447-1.005-1s0.442-1,0.994-1H7.03c0.552,0,1,0.447,1,1S7.582,15.001,7.03,15.001z"/>
		</g>
		<g>
			<path d="M10.03,15.001c-0.553,0-1.005-0.447-1.005-1s0.442-1,0.994-1h0.011c0.552,0,1,0.447,1,1S10.582,15.001,10.03,15.001z"/>
		</g>
		<g>
			<path d="M49.018,60.999h-48c-0.553,0-1-0.447-1-1V16.001c0-0.553,0.447-1,1-1h26.981c0.553,0,1,0.447,1,1s-0.447,1-1,1H2.018
				v41.998h46V24.001c0-0.553,0.447-1,1-1s1,0.447,1,1v35.998C50.018,60.552,49.57,60.999,49.018,60.999z"/>
		</g>
		<g>
			<path d="M1,15.001c-0.553,0-1-0.447-1-1c0-1.654,1.346-3,3-3c0.553,0,1,0.447,1,1s-0.447,1-1,1c-0.552,0-1,0.448-1,1
				C2,14.554,1.553,15.001,1,15.001z"/>
		</g>
		<g>
			<path d="M1,17.001c-0.553,0-1-0.447-1-1v-2c0-0.553,0.447-1,1-1s1,0.447,1,1v2C2,16.554,1.553,17.001,1,17.001z"/>
		</g>
		<g>
			<path d="M28,13.001H3c-0.553,0-1-0.447-1-1s0.447-1,1-1h25c0.553,0,1,0.447,1,1S28.553,13.001,28,13.001z"/>
		</g>
	</g>
	<g>
		<path d="M42.992,42.999h-36c-0.553,0-1-0.447-1-1V22.001c0-0.553,0.447-1,1-1s1,0.447,1,1v18.998h34V24.385c0-0.553,0.447-1,1-1
			s1,0.447,1,1v17.614C43.992,42.552,43.545,42.999,42.992,42.999z"/>
	</g>
	<g>
		<path d="M42.992,46.999h-36c-0.553,0-1-0.447-1-1s0.447-1,1-1h36c0.553,0,1,0.447,1,1S43.545,46.999,42.992,46.999z"/>
	</g>
	<g>
		<path d="M42.992,49.998H7c-0.553,0-1-0.447-1-1s0.447-1,1-1h35.992c0.553,0,1,0.447,1,1S43.545,49.998,42.992,49.998z"/>
	</g>
	<g>
		<path d="M24.975,53.001H7c-0.553,0-1-0.447-1-1s0.447-1,1-1h17.975c0.553,0,1,0.447,1,1S25.527,53.001,24.975,53.001z"/>
	</g>
	<g>
		<path d="M38.998,56h-5.98c-0.553,0-1-0.447-1-1s0.447-1,1-1h5.98c0.553,0,1,0.447,1,1S39.551,56,38.998,56z"/>
	</g>
	<g>
		<path d="M35,27.001c-0.183,0-0.365-0.05-0.525-0.149C34.18,26.669,34,26.348,34,26.001v-1h-6c-0.553,0-1-0.447-1-1v-20
			c0-0.553,0.447-1,1-1h35c0.553,0,1,0.447,1,1v20c0,0.553-0.447,1-1,1H39.236l-3.789,1.895C35.306,26.966,35.153,27.001,35,27.001z
			 M29,23.001h6c0.553,0,1,0.447,1,1v0.382l2.553-1.276c0.139-0.069,0.292-0.105,0.447-0.105h23v-18H29V23.001z"/>
	</g>
	<g>
		<path d="M28,23.001H6.992c-0.553,0-1-0.447-1-1s0.447-1,1-1H28c0.553,0,1,0.447,1,1S28.553,23.001,28,23.001z"/>
	</g>
	<g>
		<path d="M37.854,18.001c-0.159,0-0.319-0.038-0.466-0.115L36,17.155l-1.389,0.73c-0.336,0.179-0.745,0.148-1.054-0.076
			c-0.308-0.224-0.462-0.603-0.397-0.978l0.266-1.547l-1.123-1.094c-0.273-0.266-0.371-0.663-0.254-1.025s0.431-0.626,0.807-0.681
			l1.553-0.227l0.695-1.407c0.336-0.684,1.457-0.684,1.793,0l0.695,1.407l1.553,0.227c0.376,0.055,0.689,0.318,0.807,0.681
			s0.02,0.76-0.254,1.025l-1.123,1.094l0.266,1.547c0.064,0.375-0.09,0.754-0.397,0.978C38.268,17.937,38.062,18.001,37.854,18.001z
			 M36,15.025c0.16,0,0.32,0.038,0.466,0.115l0.061,0.031l-0.012-0.067c-0.056-0.324,0.052-0.655,0.288-0.886l0.048-0.047
			l-0.067-0.01c-0.325-0.047-0.606-0.252-0.752-0.547L36,13.553l-0.031,0.063c-0.146,0.295-0.427,0.5-0.752,0.547l-0.067,0.01
			l0.048,0.047c0.236,0.23,0.344,0.562,0.288,0.886l-0.012,0.067l0.061-0.031C35.68,15.063,35.84,15.025,36,15.025z"/>
	</g>
	<g>
		<path d="M47.854,18.001c-0.159,0-0.319-0.038-0.466-0.115L46,17.155l-1.389,0.73c-0.336,0.179-0.745,0.148-1.054-0.076
			c-0.308-0.224-0.462-0.603-0.397-0.978l0.266-1.547l-1.123-1.094c-0.273-0.266-0.371-0.663-0.254-1.025s0.431-0.626,0.807-0.681
			l1.553-0.227l0.695-1.407c0.336-0.684,1.457-0.684,1.793,0l0.695,1.407l1.553,0.227c0.376,0.055,0.689,0.318,0.807,0.681
			s0.02,0.76-0.254,1.025l-1.123,1.094l0.266,1.547c0.064,0.375-0.09,0.754-0.397,0.978C48.268,17.937,48.062,18.001,47.854,18.001z
			 M46,15.025c0.16,0,0.32,0.038,0.466,0.115l0.061,0.031l-0.012-0.067c-0.056-0.324,0.052-0.655,0.288-0.886l0.048-0.047
			l-0.067-0.01c-0.325-0.047-0.606-0.252-0.752-0.547L46,13.553l-0.031,0.063c-0.146,0.295-0.427,0.5-0.752,0.547l-0.067,0.01
			l0.048,0.047c0.236,0.23,0.344,0.562,0.288,0.886l-0.012,0.067l0.061-0.031C45.68,15.063,45.84,15.025,46,15.025z"/>
	</g>
	<g>
		<path d="M57.854,18.001c-0.159,0-0.319-0.038-0.466-0.115L56,17.155l-1.389,0.73c-0.336,0.179-0.744,0.148-1.054-0.076
			c-0.308-0.224-0.462-0.603-0.397-0.978l0.266-1.547l-1.123-1.094c-0.273-0.266-0.371-0.663-0.254-1.025s0.431-0.626,0.807-0.681
			l1.553-0.227l0.695-1.407c0.336-0.684,1.457-0.684,1.793,0l0.695,1.407l1.553,0.227c0.376,0.055,0.689,0.318,0.807,0.681
			s0.02,0.76-0.254,1.025l-1.123,1.094l0.266,1.547c0.064,0.375-0.09,0.754-0.397,0.978C58.268,17.937,58.062,18.001,57.854,18.001z
			 M56,15.025c0.16,0,0.32,0.038,0.466,0.115l0.061,0.031l-0.012-0.067c-0.056-0.324,0.052-0.655,0.288-0.886l0.048-0.047
			l-0.067-0.01c-0.325-0.047-0.606-0.252-0.752-0.547L56,13.553l-0.031,0.063c-0.146,0.295-0.427,0.5-0.752,0.547l-0.067,0.01
			l0.048,0.047c0.236,0.23,0.344,0.562,0.288,0.886l-0.012,0.067l0.061-0.031C55.68,15.063,55.84,15.025,56,15.025z"/>
	</g>
	<g>
		<g>
			<path d="M34,39.001H16.001c-0.553,0-1-0.447-1-1s0.447-1,1-1H34c0.553,0,1,0.447,1,1S34.553,39.001,34,39.001z"/>
		</g>
		<g>
			<path d="M33,36c-0.553,0-1-0.447-1-1c0-3.859-3.141-6.999-7-6.999s-7,3.14-7,6.999c0,0.553-0.447,1-1,1s-1-0.447-1-1
				c0-4.962,4.037-8.999,9-8.999s9,4.037,9,8.999C34,35.553,33.553,36,33,36z"/>
		</g>
		<g>
			<path d="M17,39.001c-0.553,0-1-0.447-1-1v-3.002c0-0.553,0.447-1,1-1s1,0.447,1,1v3.002C18,38.554,17.553,39.001,17,39.001z"/>
		</g>
		<g>
			<path d="M33.001,39.001c-0.553,0-1-0.447-1-1v-3.002c0-0.553,0.447-1,1-1s1,0.447,1,1v3.002
				C34.001,38.554,33.554,39.001,33.001,39.001z"/>
		</g>
		<g>
			<path d="M25,27.999c-0.553,0-1-0.447-1-1v-1c0-0.553,0.447-1,1-1s1,0.447,1,1v1C26,27.552,25.553,27.999,25,27.999z"/>
		</g>
		<g>
			<path d="M30,35.999c-0.553,0-1-0.447-1-1c0-2.202-1.792-3.994-3.994-3.994c-0.553,0-1-0.447-1-1s0.447-1,1-1
				c3.306,0,5.994,2.688,5.994,5.994C31,35.552,30.553,35.999,30,35.999z"/>
		</g>
	</g>
	<g>
		<path d="M43.019,55h-1c-0.553,0-1-0.447-1-1s0.447-1,1-1h1c0.553,0,1,0.447,1,1S43.571,55,43.019,55z"/>
	</g>
	<g>
		<path d="M43.02,57c-0.367,0-0.72-0.202-0.896-0.553l-1-2c-0.247-0.494-0.047-1.095,0.447-1.342
			c0.494-0.246,1.094-0.047,1.342,0.447l1,2c0.247,0.494,0.047,1.095-0.447,1.342C43.322,56.966,43.17,57,43.02,57z"/>
	</g>
	<g>
		<path d="M43.019,57h-1c-0.553,0-1-0.447-1-1s0.447-1,1-1h1c0.553,0,1,0.447,1,1S43.571,57,43.019,57z"/>
	</g>
</g>
</svg>
