<?xml version="1.0" ?><svg width="64px" height="64px" viewBox="0 0 64 64" id="Layer_1" style="enable-background:new 0 0 64 64;" version="1.1" xml:space="preserve" xmlns="http://www.w3.org/2000/svg" xmlns:xlink="http://www.w3.org/1999/xlink"><g><path d="M60.8,44.9l-4.6-26.8c-0.2-1.4-1.5-2.5-2.9-2.5H11.5c-0.9,0-1.7,0.4-2.2,1.1c-0.4,0.5-0.7,1.2-0.7,1.8   C7,25.3,5.4,32,3.9,38.8c-0.2,1-0.5,2-0.7,3c-0.3,1.3,0.6,2.5,1.9,2.5c2.7,0,5.4,0,8.1,0l0.3,1.6c0.3,1.4,1.5,2.4,2.9,2.4l41.4,0.1   c0,0,0,0,0,0c0.9,0,1.7-0.4,2.2-1C60.7,46.7,60.9,45.8,60.8,44.9z M7.7,40.3c0.9-3.9,1.8-7.8,2.7-11.7l2.2,11.7   C10.9,40.3,9.3,40.3,7.7,40.3z M17.4,44.3l-4.6-24.7h39.6l4.3,24.8L17.4,44.3z"/><path d="M42.6,27c-4.6,0-9.2,0-13.8,0c-0.7,0-1.3,0-2,0c-2.6,0-2.6,4,0,4c4.6,0,9.2,0,13.8,0c0.7,0,1.3,0,2,0   C45.1,31,45.1,27,42.6,27z"/><path d="M42.6,33c-4.6,0-9.2,0-13.8,0c-0.7,0-1.3,0-2,0c-2.6,0-2.6,4,0,4c4.6,0,9.2,0,13.8,0c0.7,0,1.3,0,2,0   C45.1,37,45.1,33,42.6,33z"/></g></svg>